<?xml version="1.0" standalone="no"?>
<svg xmlns="http://www.w3.org/2000/svg" viewBox="0 0 101.561 117.272" width="101.561" height="117.272"><polygon fill="none" stroke="#69bba3" stroke-width="3" points="100.061,30.068 100.061,87.20400000000001 50.7805,115.772 1.5,87.20400000000001 1.5,30.068 50.7805,1.5"></polygon><g fill="#5162ff" color="#5162ff" transform="translate(28.780500000000004 22.5) scale(0.44)"><svg width="100.0" height="100.0" x="0.0" y="0.0" viewBox="0 0 100 100"><g><path d="M81.704,91.769h-63.68c-1.104,0-2-0.896-2-2V55.334h-3.322c-1.104,0-2-0.896-2-2V40.277c0-1.104,0.896-2,2-2h22.413   c1.104,0,2,0.896,2,2v13.057c0,1.104-0.896,2-2,2h-3.643v8.253h36.779v-8.253h-3.643c-1.104,0-2-0.896-2-2V40.277   c0-1.104,0.896-2,2-2h22.413c1.104,0,2,0.896,2,2v13.057c0,1.104-0.896,2-2,2h-3.318v34.435   C83.704,90.873,82.809,91.769,81.704,91.769z M20.024,87.769h59.68V53.334c0-1.104,0.896-2,2-2h3.318v-9.057H66.609v9.057h3.643   c1.104,0,2,0.896,2,2v12.253c0,1.104-0.896,2-2,2H29.473c-1.104,0-2-0.896-2-2V53.334c0-1.104,0.896-2,2-2h3.643v-9.057H14.702   v9.057h3.322c1.104,0,2,0.896,2,2V87.769z"></path></g><g><rect x="33.115" y="31.533" width="4" height="12.416"></rect></g><g><rect x="22.112" y="31.533" width="4" height="8.837"></rect></g><g><rect x="10.702" y="31.533" width="4" height="11.569"></rect></g><g><rect x="85.014" y="31.713" width="4" height="12.418"></rect></g><g><rect x="74.013" y="31.713" width="4" height="8.838"></rect></g><g><rect x="62.605" y="31.713" width="4" height="11.571"></rect></g><g><path d="M55.103,91.184H44.945c-1.104,0-2-0.896-2-2V75.701c0-2.605,2.694-5.301,7.202-5.301c4.16,0,6.955,2.996,6.955,5.794   v12.989C57.103,90.288,56.207,91.184,55.103,91.184z M46.945,87.184h6.157V76.194C53.098,75.762,52.2,74.4,50.147,74.4   c-2.234,0-3.166,1.043-3.203,1.31L46.945,87.184z"></path></g><g><path d="M55.767,67.006c-1.104,0-2-0.896-2-2V35.987c0-1.104,0.896-2,2-2h3.318v-9.062H40.676v9.062h3.643c1.104,0,2,0.896,2,2   v26.636c0,1.104-0.896,2-2,2s-2-0.896-2-2V37.987h-3.643c-1.104,0-2-0.896-2-2V22.926c0-1.104,0.896-2,2-2h22.409   c1.104,0,2,0.896,2,2v13.062c0,1.104-0.896,2-2,2h-3.318v27.019C57.767,66.11,56.871,67.006,55.767,67.006z"></path></g><g><rect x="59.081" y="14.361" width="4" height="12.418"></rect></g><g><rect x="48.074" y="14.361" width="4" height="8.838"></rect></g><g><rect x="36.668" y="14.361" width="4" height="11.571"></rect></g></svg></g><path fill="#5162ff" fill-rule="nonzero" d="M11.31 12.38L11.31 12.38L14.92 12.38Q14.92 16.18 13.02 18.23Q11.12 20.27 7.64 20.27L7.64 20.27Q0 20.27 0 11.28L0 11.28L0 9.60Q0 2.52 3.92 0.73L3.92 0.73Q5.46 0 7.64 0L7.64 0Q10.84 0 12.84 1.75Q14.84 3.50 14.84 6.80L14.84 6.80L11.20 6.80Q10.89 5.15 10.11 4.31Q9.32 3.47 7.64 3.47L7.64 3.47Q5.68 3.47 4.73 4.70L4.73 4.70Q4.06 5.57 3.95 7.67L3.95 7.67Q3.89 8.34 3.89 9.49L3.89 9.49L3.89 11.23Q3.89 14.45 4.79 15.62L4.79 15.62Q5.71 16.80 7.66 16.80Q9.60 16.80 10.35 15.72Q11.09 14.64 11.31 12.38Z" transform="translate(43.319, 74.5)"></path></svg>